<?xml version="1.0" standalone="no"?>
<!DOCTYPE svg PUBLIC "-//W3C//DTD SVG 20010904//EN"
 "http://www.w3.org/TR/2001/REC-SVG-20010904/DTD/svg10.dtd">
<svg version="1.0" xmlns="http://www.w3.org/2000/svg"
 width="1333.000000pt" height="1333.000000pt" viewBox="0 0 1333.000000 1333.000000"
 preserveAspectRatio="xMidYMid meet">
<metadata>
Created by potrace 1.11, written by Peter Selinger 2001-2013
</metadata>
<g transform="translate(0.000000,1333.000000) scale(0.100000,-0.100000)"
fill="#000000" stroke="none">
<path d="M3969 10876 c-2 -3 -47 -8 -99 -11 -52 -4 -108 -8 -125 -11 -16 -2
-55 -6 -85 -10 -30 -3 -64 -8 -75 -10 -11 -3 -36 -7 -55 -10 -39 -6 -63 -10
-100 -18 -13 -3 -42 -8 -64 -12 -22 -3 -43 -7 -46 -9 -3 -2 -21 -6 -40 -9 -19
-3 -60 -13 -90 -22 -30 -9 -64 -17 -75 -19 -11 -1 -33 -7 -48 -14 -16 -6 -32
-11 -37 -11 -31 0 -363 -121 -492 -179 -38 -17 -68 -27 -68 -23 0 4 -4 2 -8
-3 -4 -6 -34 -23 -67 -38 -33 -15 -67 -32 -75 -37 -8 -5 -29 -16 -46 -24 -17
-8 -75 -39 -129 -70 -53 -31 -101 -56 -106 -56 -5 0 -9 -4 -9 -8 0 -5 -15 -16
-32 -26 -46 -24 -139 -83 -173 -109 -5 -4 -60 -45 -122 -90 -266 -197 -511
-428 -722 -682 -46 -55 -91 -110 -102 -123 -10 -12 -19 -25 -19 -27 0 -6 -10
-20 -40 -54 -29 -33 -140 -199 -140 -209 0 -6 -4 -12 -8 -14 -11 -4 -123 -188
-154 -252 -12 -25 -26 -46 -30 -46 -4 0 -8 -6 -8 -14 0 -14 -29 -76 -40 -86
-3 -3 -21 -41 -40 -85 -18 -44 -38 -86 -44 -94 -5 -7 -11 -18 -12 -25 -1 -6
-25 -66 -52 -133 -28 -68 -48 -123 -45 -123 3 0 1 -6 -4 -12 -6 -7 -22 -53
-37 -103 -15 -49 -30 -97 -33 -105 -3 -8 -7 -19 -8 -25 -2 -5 -13 -46 -24 -90
-12 -44 -24 -89 -26 -100 -3 -11 -12 -54 -22 -95 -9 -41 -17 -87 -17 -102 0
-16 -3 -28 -7 -28 -3 0 -5 -10 -5 -22 1 -13 0 -27 -3 -33 -6 -11 -8 -22 -15
-86 -3 -26 -7 -57 -10 -70 -6 -25 -10 -58 -23 -214 -13 -151 -7 -765 7 -765 3
0 6 -15 7 -32 1 -18 4 -49 7 -68 2 -19 8 -59 11 -89 3 -30 8 -58 10 -61 3 -4
7 -31 10 -60 3 -28 10 -60 16 -71 5 -10 8 -19 6 -19 -4 0 1 -30 19 -110 3 -14
14 -61 25 -105 12 -44 22 -87 24 -95 18 -79 146 -433 205 -565 29 -65 141
-289 170 -340 13 -22 35 -60 49 -85 13 -25 27 -47 30 -50 3 -3 12 -15 18 -27
7 -13 19 -33 25 -45 7 -13 19 -27 25 -31 7 -4 13 -13 13 -20 0 -7 18 -36 40
-65 22 -29 40 -55 40 -58 0 -5 55 -78 78 -102 6 -7 12 -17 12 -20 0 -4 10 -18
23 -32 12 -14 40 -48 61 -75 22 -28 47 -57 55 -66 9 -9 43 -47 76 -85 118
-135 331 -339 455 -438 25 -20 55 -45 67 -56 12 -11 25 -20 29 -20 4 0 17 -11
30 -25 13 -14 26 -25 29 -25 9 0 79 -53 83 -62 2 -5 10 -8 17 -8 7 0 15 -3 17
-8 2 -4 30 -25 63 -46 33 -22 86 -57 118 -78 32 -21 60 -38 62 -38 2 0 39 -21
82 -46 66 -40 384 -201 398 -203 3 -1 22 -8 43 -17 71 -30 133 -52 142 -50 3
0 16 -7 30 -17 13 -9 33 -17 42 -17 18 0 28 -4 75 -28 13 -7 32 -12 43 -12 11
0 28 -4 38 -10 9 -5 42 -17 72 -25 70 -21 161 -46 180 -50 8 -2 26 -6 40 -9
14 -3 36 -8 50 -11 14 -3 45 -9 70 -15 25 -6 59 -13 75 -16 17 -3 41 -7 55
-10 43 -8 129 -21 205 -30 28 -3 61 -8 75 -10 14 -3 70 -8 125 -12 136 -10
5458 -9 5565 1 157 14 256 26 295 34 17 3 41 7 55 9 14 1 39 5 55 9 41 8 74
14 115 21 19 3 38 8 41 10 3 2 21 6 40 9 19 4 39 8 44 9 6 1 16 5 23 9 6 5 12
6 12 3 0 -2 30 4 68 15 37 11 77 22 90 25 78 16 420 141 559 205 86 39 285
138 298 149 10 7 69 41 135 76 19 11 37 22 40 25 3 3 21 14 40 25 19 10 42 26
52 35 10 9 31 22 46 30 14 8 34 19 42 26 8 6 62 46 120 89 58 42 119 89 136
103 17 14 52 44 79 66 184 151 423 398 594 615 28 36 58 73 66 83 8 9 15 21
15 27 0 5 6 13 13 17 20 12 247 361 247 380 0 3 6 14 14 22 24 28 206 398 206
421 0 5 5 10 10 10 6 0 9 3 9 8 -1 4 0 10 1 15 1 4 3 10 5 15 1 4 7 20 13 35
7 16 12 31 12 34 0 3 6 19 14 36 19 41 73 197 91 262 25 87 64 230 65 233 0 1
0 3 1 5 2 8 9 36 14 62 3 17 12 57 20 91 8 34 17 83 21 110 3 27 8 52 10 56 2
3 6 28 9 55 10 93 14 128 19 158 21 129 29 647 12 810 -4 44 -10 98 -12 120
-5 59 -13 123 -24 185 -5 30 -11 71 -14 90 -3 19 -8 46 -11 60 -3 14 -8 38
-10 54 -8 42 -94 379 -102 396 -3 8 -7 20 -9 25 -1 6 -14 44 -28 85 -15 41
-28 82 -30 90 -9 31 -69 175 -77 185 -5 5 -9 15 -9 23 0 26 -191 403 -253 499
-15 24 -27 47 -27 53 0 5 -4 10 -10 10 -5 0 -10 5 -10 10 0 13 -120 194 -132
198 -4 2 -8 10 -8 18 0 8 -4 14 -8 14 -4 0 -15 12 -24 28 -19 31 -128 171
-197 251 -135 159 -337 360 -472 473 -24 20 -54 44 -66 55 -12 10 -45 36 -74
58 -28 22 -66 52 -84 68 -18 15 -37 27 -43 27 -6 0 -12 4 -14 8 -3 9 -243 172
-253 172 -2 0 -28 15 -57 33 -61 39 -245 140 -258 142 -3 0 -21 9 -40 20 -19
11 -37 20 -40 20 -3 0 -34 15 -70 32 -53 25 -272 115 -290 119 -5 1 -28 9 -65
24 -62 24 -317 98 -350 101 -2 0 -19 5 -37 10 -33 10 -198 46 -253 55 -16 2
-61 10 -100 16 -38 7 -77 12 -85 13 -13 1 -71 7 -210 23 -55 6 -5485 14 -5491
8z m5228 -1490 c51 -4 110 -9 130 -12 21 -3 54 -7 73 -9 55 -7 269 -52 330
-70 30 -9 64 -18 75 -20 32 -7 124 -41 132 -48 3 -4 14 -7 23 -7 9 0 34 -8 56
-19 21 -10 59 -27 84 -37 116 -49 318 -160 435 -239 40 -27 147 -106 161 -119
7 -6 31 -27 55 -46 79 -63 180 -159 274 -261 87 -94 245 -300 245 -319 0 -5 4
-10 9 -10 5 0 14 -13 21 -30 7 -16 16 -30 21 -30 5 0 9 -4 9 -9 0 -5 16 -35
35 -67 41 -68 159 -307 170 -344 4 -14 13 -38 20 -55 14 -33 55 -142 55 -150
0 -3 2 -10 4 -17 15 -49 56 -208 61 -233 2 -16 9 -55 15 -85 47 -233 56 -546
25 -823 -7 -60 -39 -242 -49 -275 -3 -9 -7 -28 -10 -42 -2 -14 -12 -52 -22
-85 -10 -33 -18 -62 -19 -65 -2 -11 -27 -86 -35 -105 -4 -11 -20 -51 -35 -90
-36 -94 -108 -249 -117 -253 -5 -2 -8 -12 -8 -22 0 -10 -5 -20 -11 -22 -5 -2
-11 -10 -12 -19 -2 -8 -13 -29 -25 -46 -12 -17 -22 -34 -22 -37 0 -21 -227
-336 -242 -336 -4 0 -8 -5 -8 -10 0 -18 -200 -225 -309 -320 -80 -70 -312
-240 -327 -240 -6 0 -17 -6 -23 -14 -7 -8 -40 -29 -74 -47 -84 -44 -101 -53
-107 -60 -3 -3 -26 -14 -52 -25 -27 -10 -48 -23 -48 -27 0 -5 -4 -6 -9 -2 -5
3 -12 1 -16 -5 -3 -5 -14 -10 -24 -10 -9 0 -22 -5 -29 -12 -6 -6 -18 -13 -26
-14 -9 -1 -58 -19 -111 -39 -52 -20 -110 -41 -128 -45 -17 -5 -57 -16 -87 -25
-70 -20 -84 -24 -190 -45 -117 -23 -127 -24 -325 -45 -80 -9 -4986 -10 -5085
-1 -60 5 -113 11 -200 21 -19 3 -57 9 -85 14 -27 6 -63 13 -80 16 -16 3 -42 8
-57 11 -15 3 -29 5 -30 4 -2 -1 -20 5 -40 13 -21 9 -38 14 -38 12 0 -3 -12 0
-27 6 -16 6 -35 12 -44 14 -33 7 -204 68 -213 76 -6 5 -16 9 -23 9 -19 0 -253
114 -329 160 -36 22 -68 40 -71 40 -16 0 -253 173 -352 258 -59 50 -236 228
-286 287 -22 27 -50 59 -63 73 -12 14 -32 40 -43 59 -11 18 -24 33 -27 33 -4
0 -18 20 -31 45 -13 25 -27 45 -31 45 -4 0 -13 14 -20 30 -7 17 -16 30 -20 30
-7 0 -27 38 -28 54 0 5 -5 12 -10 15 -13 8 -108 186 -150 281 -11 25 -28 65
-39 90 -11 25 -30 77 -42 115 -12 39 -26 79 -31 90 -11 26 -24 78 -22 88 1 4
-3 7 -9 7 -5 0 -8 4 -5 8 3 5 -2 31 -10 57 -8 27 -16 63 -18 80 -3 16 -9 50
-14 75 -6 25 -13 68 -17 95 -3 28 -8 64 -11 80 -15 98 -25 465 -12 465 4 0 3
14 -2 30 -5 17 -5 30 -1 30 3 0 7 15 7 33 1 48 20 205 31 247 3 14 8 34 9 45
9 54 13 75 29 135 9 36 18 72 20 81 5 27 76 231 102 294 28 69 134 287 142
295 3 3 17 25 30 50 49 91 189 290 263 375 82 94 109 124 153 169 112 113 369
326 394 326 5 0 11 4 13 8 3 9 96 72 104 72 3 0 18 8 32 19 66 47 416 212 477
226 5 1 23 7 39 14 16 6 36 13 45 15 9 1 49 13 90 25 41 13 83 25 95 27 12 2
32 7 46 10 14 2 36 7 50 10 14 3 32 7 40 9 8 3 32 7 53 10 20 3 54 8 75 11 59
9 90 12 202 19 58 4 106 8 107 9 6 5 4878 -2 4950 -8z"/>
</g>
</svg>
